<svg width="931" height="396" xmlns="http://www.w3.org/2000/svg" p-id="1689" version="1.1" class="icon" t="1573963735906">
 <defs>
  <style type="text/css"/>
 </defs>
 <g>
  <title>background</title>
  <rect fill="none" id="canvas_background" height="398" width="933" y="-1" x="-1"/>
 </g>
 <g>
  <title>Layer 1</title>
  <path stroke="null" id="svg_1" p-id="1690" fill="#FF9B57" d="m68.180001,204.166671m-22.166671,0a22.166671,21.162359 0 1 0 44.333342,0a22.166671,21.162359 0 1 0 -44.333342,0z"/>
  <path stroke="null" id="svg_2" p-id="1691" fill="#FD8F9E" d="m179.000009,194.226676a93.434239,92.188458 0 0 1 -93.333335,-92.088904a20.180182,19.911115 0 0 1 40.36036,0a52.972975,52.266674 0 1 0 105.94595,0a20.180182,19.911115 0 0 1 40.36036,0a93.434239,92.188458 0 0 1 -93.333335,92.088904z"/>
  <path stroke="null" id="svg_3" p-id="1692" fill="#FC455D" d="m250.477469,117.400017a19.855857,17.777781 0 0 1 -19.855857,-17.777781a52.12162,46.666672 0 1 0 -104.24324,0a19.855857,17.777781 0 1 1 -39.711709,0a91.833329,82.222231 0 1 1 183.666658,0a19.855857,17.777781 0 0 1 -19.855852,17.777781z"/>
  <path stroke="null" id="svg_4" p-id="1693" fill="#FC455D" d="m284.343374,155.440003a53.169528,54.916009 0 0 1 -53.069962,-54.813171a19.913683,20.567795 0 0 1 39.827361,0a13.242596,13.677581 0 0 0 26.485197,0a19.913683,20.567795 0 1 1 39.827361,0a53.169528,54.916009 0 0 1 -53.069957,54.813171zm-210.686749,0a53.169528,54.916009 0 0 1 -53.069957,-54.813171a19.913683,20.567795 0 1 1 39.827361,0a13.242596,13.677581 0 1 0 26.485197,0a19.913683,20.567795 0 0 1 39.827361,0a53.169528,54.916009 0 0 1 -53.069962,54.813171z"/>
  <path stroke="null" id="svg_5" p-id="1694" fill="#FD8F9E" d="m289.698326,380.599996a21.682103,22.908604 0 0 1 -21.682103,-22.908604a94.859193,100.225137 0 0 0 -93.016213,-101.714194a94.859193,100.225137 0 0 0 -93.016213,101.714194a21.682103,22.908604 0 0 1 -43.3642,0a138.223393,146.04234 0 0 1 136.380413,-147.531397a138.223393,146.04234 0 0 1 136.380413,147.531397a21.682103,22.908604 0 0 1 -21.682098,22.908604z"/>
  <text stroke="null" transform="matrix(7.959372453410424,0,0,8.773884143738709,-2592.1798106907904,-895.4320541343521) " xml:space="preserve" text-anchor="start" font-family="Helvetica, Arial, sans-serif" font-size="24" id="svg_6" y="132.797898" x="368.897271" stroke-opacity="null" stroke-width="0" fill="#ffaaaa">美图热</text>
 </g>
</svg>